<mxfile host="app.diagrams.net" agent="Mozilla/5.0 (Windows NT 10.0; Win64; x64) AppleWebKit/537.36 (KHTML, like Gecko) Chrome/130.0.0.0 Safari/537.36 Edg/130.0.0.0" version="24.8.0">
  <diagram name="Page-1" id="s6GPRcgK0os_InaYpYxQ">
    <mxGraphModel dx="856" dy="462" grid="1" gridSize="10" guides="1" tooltips="1" connect="1" arrows="1" fold="1" page="1" pageScale="1" pageWidth="850" pageHeight="1100" math="0" shadow="0">
      <root>
        <mxCell id="0" />
        <mxCell id="1" parent="0" />
        <mxCell id="Meh9hi9bK89R8pgn019z-3" value="" style="edgeStyle=orthogonalEdgeStyle;rounded=0;orthogonalLoop=1;jettySize=auto;html=1;" edge="1" parent="1" source="Meh9hi9bK89R8pgn019z-1" target="Meh9hi9bK89R8pgn019z-2">
          <mxGeometry relative="1" as="geometry" />
        </mxCell>
        <mxCell id="Meh9hi9bK89R8pgn019z-1" value="Lead fills out an interest form" style="ellipse;whiteSpace=wrap;html=1;" vertex="1" parent="1">
          <mxGeometry x="340" width="120" height="80" as="geometry" />
        </mxCell>
        <mxCell id="Meh9hi9bK89R8pgn019z-5" value="" style="edgeStyle=orthogonalEdgeStyle;rounded=0;orthogonalLoop=1;jettySize=auto;html=1;" edge="1" parent="1" source="Meh9hi9bK89R8pgn019z-2" target="Meh9hi9bK89R8pgn019z-4">
          <mxGeometry relative="1" as="geometry" />
        </mxCell>
        <mxCell id="Meh9hi9bK89R8pgn019z-6" value="No" style="edgeLabel;html=1;align=center;verticalAlign=middle;resizable=0;points=[];" vertex="1" connectable="0" parent="Meh9hi9bK89R8pgn019z-5">
          <mxGeometry x="-0.025" y="-2" relative="1" as="geometry">
            <mxPoint as="offset" />
          </mxGeometry>
        </mxCell>
        <mxCell id="Meh9hi9bK89R8pgn019z-8" value="" style="edgeStyle=orthogonalEdgeStyle;rounded=0;orthogonalLoop=1;jettySize=auto;html=1;" edge="1" parent="1" source="Meh9hi9bK89R8pgn019z-2" target="Meh9hi9bK89R8pgn019z-7">
          <mxGeometry relative="1" as="geometry" />
        </mxCell>
        <mxCell id="Meh9hi9bK89R8pgn019z-9" value="Yes" style="edgeLabel;html=1;align=center;verticalAlign=middle;resizable=0;points=[];" vertex="1" connectable="0" parent="Meh9hi9bK89R8pgn019z-8">
          <mxGeometry x="-0.125" y="1" relative="1" as="geometry">
            <mxPoint as="offset" />
          </mxGeometry>
        </mxCell>
        <mxCell id="Meh9hi9bK89R8pgn019z-2" value="Lead Exists?" style="rhombus;whiteSpace=wrap;html=1;" vertex="1" parent="1">
          <mxGeometry x="340" y="130" width="120" height="60" as="geometry" />
        </mxCell>
        <mxCell id="Meh9hi9bK89R8pgn019z-12" style="edgeStyle=orthogonalEdgeStyle;rounded=0;orthogonalLoop=1;jettySize=auto;html=1;exitX=0.5;exitY=1;exitDx=0;exitDy=0;entryX=1;entryY=0.5;entryDx=0;entryDy=0;" edge="1" parent="1" source="Meh9hi9bK89R8pgn019z-4" target="Meh9hi9bK89R8pgn019z-10">
          <mxGeometry relative="1" as="geometry" />
        </mxCell>
        <mxCell id="Meh9hi9bK89R8pgn019z-4" value="Create New Lead" style="whiteSpace=wrap;html=1;" vertex="1" parent="1">
          <mxGeometry x="540" y="130" width="120" height="60" as="geometry" />
        </mxCell>
        <mxCell id="Meh9hi9bK89R8pgn019z-11" value="" style="edgeStyle=orthogonalEdgeStyle;rounded=0;orthogonalLoop=1;jettySize=auto;html=1;exitX=0.5;exitY=1;exitDx=0;exitDy=0;entryX=0;entryY=0.5;entryDx=0;entryDy=0;" edge="1" parent="1" source="Meh9hi9bK89R8pgn019z-7" target="Meh9hi9bK89R8pgn019z-10">
          <mxGeometry relative="1" as="geometry">
            <mxPoint x="129.75" y="220" as="sourcePoint" />
            <mxPoint x="269.75" y="320" as="targetPoint" />
            <Array as="points">
              <mxPoint x="200" y="290" />
            </Array>
          </mxGeometry>
        </mxCell>
        <mxCell id="Meh9hi9bK89R8pgn019z-7" value="Update existing Lead" style="whiteSpace=wrap;html=1;" vertex="1" parent="1">
          <mxGeometry x="140" y="130" width="120" height="60" as="geometry" />
        </mxCell>
        <mxCell id="Meh9hi9bK89R8pgn019z-14" value="" style="edgeStyle=orthogonalEdgeStyle;rounded=0;orthogonalLoop=1;jettySize=auto;html=1;" edge="1" parent="1" source="Meh9hi9bK89R8pgn019z-10" target="Meh9hi9bK89R8pgn019z-13">
          <mxGeometry relative="1" as="geometry" />
        </mxCell>
        <mxCell id="Meh9hi9bK89R8pgn019z-10" value="Notify SDR" style="whiteSpace=wrap;html=1;" vertex="1" parent="1">
          <mxGeometry x="340" y="260" width="120" height="60" as="geometry" />
        </mxCell>
        <mxCell id="Meh9hi9bK89R8pgn019z-16" value="" style="edgeStyle=orthogonalEdgeStyle;rounded=0;orthogonalLoop=1;jettySize=auto;html=1;" edge="1" parent="1" source="Meh9hi9bK89R8pgn019z-13" target="Meh9hi9bK89R8pgn019z-15">
          <mxGeometry relative="1" as="geometry" />
        </mxCell>
        <mxCell id="Meh9hi9bK89R8pgn019z-13" value="SDR follows up with Lead" style="whiteSpace=wrap;html=1;" vertex="1" parent="1">
          <mxGeometry x="340" y="400" width="120" height="60" as="geometry" />
        </mxCell>
        <mxCell id="Meh9hi9bK89R8pgn019z-18" value="" style="edgeStyle=orthogonalEdgeStyle;rounded=0;orthogonalLoop=1;jettySize=auto;html=1;" edge="1" parent="1" source="Meh9hi9bK89R8pgn019z-15" target="Meh9hi9bK89R8pgn019z-17">
          <mxGeometry relative="1" as="geometry" />
        </mxCell>
        <mxCell id="Meh9hi9bK89R8pgn019z-19" value="No" style="edgeLabel;html=1;align=center;verticalAlign=middle;resizable=0;points=[];" vertex="1" connectable="0" parent="Meh9hi9bK89R8pgn019z-18">
          <mxGeometry x="-0.025" y="4" relative="1" as="geometry">
            <mxPoint as="offset" />
          </mxGeometry>
        </mxCell>
        <mxCell id="Meh9hi9bK89R8pgn019z-28" value="" style="edgeStyle=orthogonalEdgeStyle;rounded=0;orthogonalLoop=1;jettySize=auto;html=1;" edge="1" parent="1" source="Meh9hi9bK89R8pgn019z-15" target="Meh9hi9bK89R8pgn019z-27">
          <mxGeometry relative="1" as="geometry" />
        </mxCell>
        <mxCell id="Meh9hi9bK89R8pgn019z-29" value="Yes" style="edgeLabel;html=1;align=center;verticalAlign=middle;resizable=0;points=[];" vertex="1" connectable="0" parent="Meh9hi9bK89R8pgn019z-28">
          <mxGeometry x="-0.18" y="-2" relative="1" as="geometry">
            <mxPoint as="offset" />
          </mxGeometry>
        </mxCell>
        <mxCell id="Meh9hi9bK89R8pgn019z-15" value="Lead Qualified?" style="rhombus;whiteSpace=wrap;html=1;" vertex="1" parent="1">
          <mxGeometry x="340" y="530" width="120" height="80" as="geometry" />
        </mxCell>
        <mxCell id="Meh9hi9bK89R8pgn019z-26" value="" style="edgeStyle=orthogonalEdgeStyle;rounded=0;orthogonalLoop=1;jettySize=auto;html=1;" edge="1" parent="1" source="Meh9hi9bK89R8pgn019z-17" target="Meh9hi9bK89R8pgn019z-25">
          <mxGeometry relative="1" as="geometry" />
        </mxCell>
        <mxCell id="Meh9hi9bK89R8pgn019z-17" value="Mark Lead as cold" style="whiteSpace=wrap;html=1;" vertex="1" parent="1">
          <mxGeometry x="540" y="540" width="120" height="60" as="geometry" />
        </mxCell>
        <mxCell id="Meh9hi9bK89R8pgn019z-25" value="Add Lead to e-mail list for follow-up" style="ellipse;whiteSpace=wrap;html=1;" vertex="1" parent="1">
          <mxGeometry x="690" y="530" width="150" height="80" as="geometry" />
        </mxCell>
        <mxCell id="Meh9hi9bK89R8pgn019z-27" value="Convert lead" style="ellipse;whiteSpace=wrap;html=1;" vertex="1" parent="1">
          <mxGeometry x="50" y="530" width="190" height="80" as="geometry" />
        </mxCell>
      </root>
    </mxGraphModel>
  </diagram>
</mxfile>
